<?xml version="1.0" standalone="no"?>
<!DOCTYPE svg PUBLIC "-//W3C//DTD SVG 20010904//EN"
 "http://www.w3.org/TR/2001/REC-SVG-20010904/DTD/svg10.dtd">
<svg version="1.0" xmlns="http://www.w3.org/2000/svg"
 width="192px" height="192px" viewBox="0 0 526.000000 526.000000"
 preserveAspectRatio="xMidYMid meet">

<g transform="translate(0.000000,526.000000) scale(0.100000,-0.100000)"
fill="#000000" stroke="none">
<path d="M838 4820 c-131 -16 -282 -80 -377 -161 -106 -91 -208 -261 -236
-394 -22 -106 -22 -3065 0 -3182 38 -202 189 -400 370 -488 151 -72 65 -68
1325 -75 1499 -10 3124 -12 3144 -4 14 5 16 36 16 240 l0 234 -280 0 -280 0 0
1598 c0 1325 -3 1608 -14 1662 -52 243 -217 442 -434 524 -139 52 -57 50
-1662 52 -828 1 -1535 -2 -1572 -6z m3055 -493 c20 -9 55 -35 77 -57 75 -75
70 29 70 -1600 0 -1629 5 -1525 -70 -1600 -82 -82 69 -75 -1610 -75 l-1495 0
-47 27 c-52 31 -99 86 -116 137 -17 49 -17 2973 0 3022 26 78 105 147 183 160
22 4 699 6 1505 5 1380 -1 1467 -2 1503 -19z"/>
</g>
</svg>
