<?xml version="1.0" standalone="no"?>
<!DOCTYPE svg PUBLIC "-//W3C//DTD SVG 20010904//EN"
 "http://www.w3.org/TR/2001/REC-SVG-20010904/DTD/svg10.dtd">
<svg version="1.0" xmlns="http://www.w3.org/2000/svg"
 width="500.000000pt" height="500.000000pt" viewBox="0 0 500.000000 500.000000"
 preserveAspectRatio="xMidYMid meet">
<metadata>
Created by potrace 1.14, written by Peter Selinger 2001-2017
</metadata>
<g transform="translate(0.000000,500.000000) scale(0.100000,-0.100000)"
fill="#000000" stroke="none">
<path d="M800 4421 c-65 -8 -184 -51 -237 -84 -72 -45 -144 -140 -162 -212 -5
-22 -17 -60 -26 -85 -15 -41 -17 -144 -22 -1070 -5 -1133 6 -2099 25 -2140 6
-14 18 -52 27 -85 15 -52 27 -69 93 -136 57 -56 90 -80 127 -93 28 -10 70 -27
95 -39 l45 -22 1937 -3 c1932 -2 1938 -2 1958 18 19 19 20 32 20 355 0 341 -4
379 -39 389 -9 3 -48 8 -87 10 -87 7 -103 12 -109 40 -3 11 -6 633 -8 1381
l-2 1360 -34 80 c-38 92 -75 160 -105 193 -36 40 -112 82 -207 114 l-94 30
-1570 3 c-863 2 -1595 0 -1625 -4z m2690 -791 c20 -20 20 -33 20 -1187 0
-1071 -1 -1168 -17 -1185 -15 -17 -63 -18 -1096 -18 -991 0 -1082 1 -1099 17
-17 15 -18 65 -18 1189 l0 1173 22 15 c20 14 140 16 1095 16 1060 0 1073 0
1093 -20z"/>
</g>
</svg>
